Input #0, video4linux2,v4l2, from '/dev/video0':
  Duration: N/A, start: 1607586945.624084, bitrate: 283115 kb/s
    Stream #0:0: Video: rawvideo (I420 / 0x30323449), yuv420p, 1024x768, 283115 kb/s, 30 fps, 30 tbr, 1000k tbn, 1000k tbc
Stream mapping:
  Stream #0:0 -> #0:0 (rawvideo (native) -> h264 (h264_v4l2m2m))
Press [q] to stop, [?] for help
[h264_v4l2m2m @ 0x1d74330] Using device /dev/video11
[h264_v4l2m2m @ 0x1d74330] driver 'bcm2835-codec' on card 'bcm2835-codec-encode' in mplane mode
[h264_v4l2m2m @ 0x1d74330] requesting formats: output=YU12 capture=H264
[h264_v4l2m2m @ 0x1d74330] Failed to set gop size: Invalid argument
Output #0, mp4, to 'raw_h264v4l2m2m.mp4':
  Metadata:
    encoder         : Lavf58.64.100
    Stream #0:0: Video: h264 (h264_v4l2m2m) (avc1 / 0x31637661), yuv420p(progressive), 1024x768, q=-1--1, 8000 kb/s, 30 fps, 15360 tbn, 30 tbc
    Metadata:
      encoder         : Lavc58.114.100 h264_v4l2m2m
frame=   12 fps=0.0 q=-0.0 size=       0kB time=00:00:00.23 bitrate=   1.6kbits/s dup=9 drop=0 speed=0.464x    frame=   28 fps= 28 q=-0.0 size=       0kB time=00:00:00.76 bitrate=   0.5kbits/s dup=22 drop=0 speed=0.759x    frame=   47 fps= 30 q=-0.0 size=       0kB time=00:00:01.36 bitrate=   0.3kbits/s dup=38 drop=0 speed=0.881x    frame=   58 fps= 28 q=-0.0 size=       0kB time=00:00:01.73 bitrate=   0.2kbits/s dup=47 drop=0 speed=0.845x    frame=   75 fps= 29 q=-0.0 size=     256kB time=00:00:02.30 bitrate= 911.9kbits/s dup=61 drop=0 speed=0.901x    frame=   92 fps= 30 q=-0.0 size=     256kB time=00:00:02.86 bitrate= 731.7kbits/s dup=75 drop=0 speed=0.937x    frame=  104 fps= 29 q=-0.0 size=     512kB time=00:00:03.26 bitrate=1284.1kbits/s dup=85 drop=0 speed=0.917x    frame=  120 fps= 29 q=-0.0 size=     512kB time=00:00:03.80 bitrate=1103.8kbits/s dup=98 drop=0 speed=0.933x    frame=  138 fps= 30 q=-0.0 size=     768kB time=00:00:04.36 bitrate=1440.9kbits/s dup=113 drop=0 speed=0.95x    frame=  154 fps= 30 q=-0.0 size=     768kB time=00:00:04.90 bitrate=1284.0kbits/s dup=126 drop=0 speed=0.959x    frame=  165 fps= 29 q=-0.0 size=     768kB time=00:00:05.26 bitrate=1194.6kbits/s dup=135 drop=0 speed=0.938x    frame=  181 fps= 30 q=-0.0 size=    1024kB time=00:00:05.80 bitrate=1446.4kbits/s dup=148 drop=0 speed=0.947x    frame=  197 fps= 30 q=-0.0 size=    1024kB time=00:00:06.33 bitrate=1324.6kbits/s dup=161 drop=0 speed=0.955x    frame=  214 fps= 30 q=-0.0 size=    1280kB time=00:00:06.90 bitrate=1519.7kbits/s dup=175 drop=0 speed=0.967x    frame=  230 fps= 30 q=-0.0 size=    1280kB time=00:00:07.43 bitrate=1410.7kbits/s dup=188 drop=0 speed=0.972x    frame=  242 fps= 30 q=-0.0 size=    1536kB time=00:00:07.83 bitrate=1606.4kbits/s dup=198 drop=0 speed=0.961x    frame=  261 fps= 30 q=-0.0 size=    1536kB time=00:00:08.46 bitrate=1486.2kbits/s dup=214 drop=0 speed=0.975x    frame=  277 fps= 30 q=-0.0 size=    1792kB time=00:00:09.00 bitrate=1631.1kbits/s dup=227 drop=0 speed=0.977x    frame=  287 fps= 30 q=-0.0 size=    1792kB time=00:00:09.33 bitrate=1572.9kbits/s dup=235 drop=0 speed=0.961x    frame=  305 fps= 30 q=-0.0 size=    1792kB time=00:00:09.93 bitrate=1477.9kbits/s dup=250 drop=0 speed=0.973x    frame=  320 fps= 30 q=-0.0 size=    2048kB time=00:00:10.43 bitrate=1608.1kbits/s dup=262 drop=0 speed=0.974x    frame=  337 fps= 30 q=-0.0 size=    2304kB time=00:00:11.00 bitrate=1715.9kbits/s dup=276 drop=0 speed=0.98x    frame=  349 fps= 30 q=-0.0 size=    2304kB time=00:00:11.40 bitrate=1655.7kbits/s dup=286 drop=0 speed=0.972x    frame=  367 fps= 30 q=-0.0 size=    2560kB time=00:00:12.00 bitrate=1747.6kbits/s dup=301 drop=0 speed=0.981x    frame=  384 fps= 30 q=-0.0 size=    2560kB time=00:00:12.56 bitrate=1668.8kbits/s dup=315 drop=0 speed=0.987x    frame=  395 fps= 30 q=-0.0 size=    2560kB time=00:00:12.93 bitrate=1621.5kbits/s dup=324 drop=0 speed=0.977x    frame=  411 fps= 30 q=-0.0 size=    2816kB time=00:00:13.46 bitrate=1713.0kbits/s dup=337 drop=0 speed=0.979x    frame=  428 fps= 30 q=-0.0 size=    3072kB time=00:00:14.03 bitrate=1793.3kbits/s dup=351 drop=0 speed=0.984x    frame=  439 fps= 30 q=-0.0 size=    3072kB time=00:00:14.40 bitrate=1747.6kbits/s dup=360 drop=0 speed=0.975x    frame=  457 fps= 30 q=-0.0 size=    3072kB time=00:00:15.00 bitrate=1677.7kbits/s dup=375 drop=0 speed=0.982x    frame=  475 fps= 30 q=-0.0 size=    3328kB time=00:00:15.60 bitrate=1747.6kbits/s dup=390 drop=0 speed=0.988x    frame=  487 fps= 30 q=-0.0 size=    3328kB time=00:00:16.00 bitrate=1704.0kbits/s dup=400 drop=0 speed=0.982x    frame=  505 fps= 30 q=-0.0 size=    3584kB time=00:00:16.56 bitrate=1772.3kbits/s dup=415 drop=0 speed=0.987x    frame=  516 fps= 30 q=-0.0 size=    3584kB time=00:00:16.93 bitrate=1733.9kbits/s dup=424 drop=0 speed=0.979x    frame=  533 fps= 30 q=-0.0 size=    3584kB time=00:00:17.50 bitrate=1677.7kbits/s dup=438 drop=0 speed=0.983x    frame=  549 fps= 30 q=-0.0 size=    3840kB time=00:00:18.03 bitrate=1744.4kbits/s dup=451 drop=0 speed=0.985x    frame=  561 fps= 30 q=-0.0 size=    3840kB time=00:00:18.43 bitrate=1706.6kbits/s dup=461 drop=0 speed=0.98x    frame=  578 fps= 30 q=-0.0 size=    4096kB time=00:00:19.00 bitrate=1766.0kbits/s dup=475 drop=0 speed=0.984x    frame=  596 fps= 30 q=-0.0 size=    4096kB time=00:00:19.60 bitrate=1712.0kbits/s dup=490 drop=0 speed=0.988x    frame=  607 fps= 30 q=-0.0 size=    4096kB time=00:00:19.96 bitrate=1680.5kbits/s dup=499 drop=0 speed=0.982x    frame=  623 fps= 30 q=-0.0 size=    4352kB time=00:00:20.50 bitrate=1739.1kbits/s dup=512 drop=0 speed=0.984x    frame=  639 fps= 30 q=-0.0 size=    4352kB time=00:00:21.03 bitrate=1695.0kbits/s dup=525 drop=0 speed=0.985x    frame=  656 fps= 30 q=-0.0 size=    4608kB time=00:00:21.60 bitrate=1747.6kbits/s dup=539 drop=0 speed=0.989x    frame=  668 fps= 30 q=-0.0 size=    4608kB time=00:00:22.00 bitrate=1715.9kbits/s dup=549 drop=0 speed=0.984x    frame=  685 fps= 30 q=-0.0 size=    4608kB time=00:00:22.56 bitrate=1672.8kbits/s dup=563 drop=0 speed=0.987x    frame=  702 fps= 30 q=-0.0 size=    4864kB time=00:00:23.13 bitrate=1722.5kbits/s dup=577 drop=0 speed=0.989x    frame=  714 fps= 30 q=-0.0 size=    4864kB time=00:00:23.53 bitrate=1693.2kbits/s dup=587 drop=0 speed=0.985x    frame=  731 fps= 30 q=-0.0 size=    5120kB time=00:00:24.10 bitrate=1740.4kbits/s dup=601 drop=0 speed=0.988x    frame=  748 fps= 30 q=-0.0 size=    5120kB time=00:00:24.66 bitrate=1700.4kbits/s dup=615 drop=0 speed=0.99x    frame=  760 fps= 30 q=-0.0 size=    5376kB time=00:00:25.06 bitrate=1756.9kbits/s dup=625 drop=0 speed=0.986x    frame=  776 fps= 30 q=-0.0 size=    5376kB time=00:00:25.60 bitrate=1720.3kbits/s dup=638 drop=0 speed=0.987x    frame=  792 fps= 30 q=-0.0 size=    5632kB time=00:00:26.13 bitrate=1765.5kbits/s dup=651 drop=0 speed=0.989x    frame=  809 fps= 30 q=-0.0 size=    5632kB time=00:00:26.70 bitrate=1728.0kbits/s dup=665 drop=0 speed=0.991x    frame=  822 fps= 30 q=-0.0 size=    5888kB time=00:00:27.13 bitrate=1777.7kbits/s dup=676 drop=0 speed=0.988x    frame=  837 fps= 30 q=-0.0 size=    5888kB time=00:00:27.63 bitrate=1745.5kbits/s dup=688 drop=0 speed=0.988x    frame=  855 fps= 30 q=-0.0 size=    6144kB time=00:00:28.23 bitrate=1782.7kbits/s dup=703 drop=0 speed=0.992x    frame=  867 fps= 30 q=-0.0 size=    6144kB time=00:00:28.63 bitrate=1757.8kbits/s dup=713 drop=0 speed=0.988x    frame=  883 fps= 30 q=-0.0 size=    6144kB time=00:00:29.16 bitrate=1725.7kbits/s dup=726 drop=0 speed=0.989x    frame=  901 fps= 30 q=-0.0 size=    6400kB time=00:00:29.76 bitrate=1761.3kbits/s dup=741 drop=0 speed=0.992x    frame=  913 fps= 30 q=-0.0 size=    6656kB time=00:00:30.16 bitrate=1807.5kbits/s dup=751 drop=0 speed=0.988x    frame=  928 fps= 30 q=-0.0 size=    6656kB time=00:00:30.66 bitrate=1778.0kbits/s dup=763 drop=0 speed=0.988x    frame=  946 fps= 30 q=-0.0 size=    6656kB time=00:00:31.26 bitrate=1743.9kbits/s dup=778 drop=0 speed=0.991x    frame=  957 fps= 30 q=-0.0 size=    6912kB time=00:00:31.63 bitrate=1790.0kbits/s dup=787 drop=0 speed=0.987x    frame=  974 fps= 30 q=-0.0 size=    6912kB time=00:00:32.20 bitrate=1758.5kbits/s dup=801 drop=0 speed=0.99x    frame=  992 fps= 30 q=-0.0 size=    7168kB time=00:00:32.80 bitrate=1790.3kbits/s dup=816 drop=0 speed=0.992x    frame= 1004 fps= 30 q=-0.0 size=    7168kB time=00:00:33.20 bitrate=1768.7kbits/s dup=826 drop=0 speed=0.989x    frame= 1020 fps= 30 q=-0.0 size=    7424kB time=00:00:33.73 bitrate=1802.9kbits/s dup=839 drop=0 speed=0.99x    frame= 1038 fps= 30 q=-0.0 size=    7424kB time=00:00:34.33 bitrate=1771.4kbits/s dup=854 drop=0 speed=0.993x    frame= 1053 fps= 30 q=-0.0 size=    7680kB time=00:00:34.83 bitrate=1806.2kbits/s dup=866 drop=0 speed=0.993x    frame= 1065 fps= 30 q=-0.0 size=    7680kB time=00:00:35.23 bitrate=1785.7kbits/s dup=876 drop=0 speed=0.99x    frame= 1081 fps= 30 q=-0.0 size=    7680kB time=00:00:35.76 bitrate=1759.0kbits/s dup=889 drop=0 speed=0.991x    frame= 1099 fps= 30 q=-0.0 size=    7936kB time=00:00:36.36 bitrate=1787.7kbits/s dup=904 drop=0 speed=0.993x    frame= 1115 fps= 30 q=-0.0 size=    7936kB time=00:00:36.90 bitrate=1761.8kbits/s dup=917 drop=0 speed=0.994x    frame= 1126 fps= 30 q=-0.0 size=    7936kB time=00:00:37.26 bitrate=1744.5kbits/s dup=926 drop=0 speed=0.99x    frame= 1143 fps= 30 q=-0.0 size=    8192kB time=00:00:37.83 bitrate=1773.8kbits/s dup=940 drop=0 speed=0.992x    frame= 1160 fps= 30 q=-0.0 size=    8192kB time=00:00:38.40 bitrate=1747.6kbits/s dup=954 drop=0 speed=0.993x    frame= 1176 fps= 30 q=-0.0 size=    8448kB time=00:00:38.93 bitrate=1777.6kbits/s dup=967 drop=0 speed=0.994x    frame= 1188 fps= 30 q=-0.0 size=    8448kB time=00:00:39.33 bitrate=1759.5kbits/s dup=977 drop=0 speed=0.991x    frame= 1206 fps= 30 q=-0.0 size=    8448kB time=00:00:39.93 bitrate=1733.0kbits/s dup=992 drop=0 speed=0.994x    More than 1000 frames duplicated
frame= 1218 fps= 30 q=-0.0 size=    8704kB time=00:00:40.33 bitrate=1767.9kbits/s dup=1002 drop=0 speed=0.991x    frame= 1234 fps= 30 q=-0.0 size=    8704kB time=00:00:40.86 bitrate=1744.8kbits/s dup=1015 drop=0 speed=0.992x    frame= 1253 fps= 30 q=-0.0 size=    8960kB time=00:00:41.50 bitrate=1768.7kbits/s dup=1031 drop=0 speed=0.995x    frame= 1263 fps= 30 q=-0.0 size=    8960kB time=00:00:41.83 bitrate=1754.6kbits/s dup=1039 drop=0 speed=0.991x    frame= 1279 fps= 30 q=-0.0 size=    8960kB time=00:00:42.36 bitrate=1732.5kbits/s dup=1052 drop=0 speed=0.992x    frame= 1298 fps= 30 q=-0.0 size=    9216kB time=00:00:43.00 bitrate=1755.8kbits/s dup=1068 drop=0 speed=0.994x    frame= 1309 fps= 30 q=-0.0 size=    9216kB time=00:00:43.36 bitrate=1740.9kbits/s dup=1077 drop=0 speed=0.991x    frame= 1326 fps= 30 q=-0.0 size=    9472kB time=00:00:43.93 bitrate=1766.2kbits/s dup=1091 drop=0 speed=0.993x    frame= 1344 fps= 30 q=-0.0 size=    9472kB time=00:00:44.53 bitrate=1742.4kbits/s dup=1106 drop=0 speed=0.994x    frame= 1360 fps= 30 q=-0.0 size=    9728kB time=00:00:45.06 bitrate=1768.3kbits/s dup=1119 drop=0 speed=0.995x    frame= 1371 fps= 30 q=-0.0 size=    9728kB time=00:00:45.43 bitrate=1754.0kbits/s dup=1128 drop=0 speed=0.992x    frame= 1388 fps= 30 q=-0.0 size=    9984kB time=00:00:46.00 bitrate=1778.0kbits/s dup=1142 drop=0 speed=0.993x    frame= 1406 fps= 30 q=-0.0 size=    9984kB time=00:00:46.56 bitrate=1756.4kbits/s dup=1157 drop=0 speed=0.994x    frame= 1418 fps= 30 q=-0.0 size=   10240kB time=00:00:46.96 bitrate=1786.1kbits/s dup=1167 drop=0 speed=0.992x    frame= 1434 fps= 30 q=-0.0 size=   10240kB time=00:00:47.50 bitrate=1766.0kbits/s dup=1180 drop=0 speed=0.992x    frame= 1451 fps= 30 q=-0.0 size=   10496kB time=00:00:48.06 bitrate=1788.8kbits/s dup=1194 drop=0 speed=0.994x    frame= 1467 fps= 30 q=-0.0 size=   10496kB time=00:00:48.60 bitrate=1769.2kbits/s dup=1207 drop=0 speed=0.994x    frame= 1479 fps= 30 q=-0.0 size=   10496kB time=00:00:49.00 bitrate=1754.8kbits/s dup=1217 drop=0 speed=0.992x    frame= 1495 fps= 30 q=-0.0 size=   10752kB time=00:00:49.53 bitrate=1778.2kbits/s dup=1230 drop=0 speed=0.993x    frame= 1512 fps= 30 q=-0.0 size=   10752kB time=00:00:50.10 bitrate=1758.1kbits/s dup=1244 drop=0 speed=0.994x    frame= 1524 fps= 30 q=-0.0 size=   11008kB time=00:00:50.50 bitrate=1785.7kbits/s dup=1254 drop=0 speed=0.992x    frame= 1541 fps= 30 q=-0.0 size=   11008kB time=00:00:51.06 bitrate=1765.9kbits/s dup=1268 drop=0 speed=0.993x    frame= 1558 fps= 30 q=-0.0 size=   11008kB time=00:00:51.63 bitrate=1746.5kbits/s dup=1282 drop=0 speed=0.994x    frame= 1575 fps= 30 q=-0.0 size=   11264kB time=00:00:52.20 bitrate=1767.7kbits/s dup=1296 drop=0 speed=0.995x    frame= 1591 fps= 30 q=-0.0 size=   11520kB time=00:00:52.73 bitrate=1789.6kbits/s dup=1309 drop=0 speed=0.995x    frame= 1602 fps= 30 q=-0.0 size=   11520kB time=00:00:53.10 bitrate=1777.3kbits/s dup=1318 drop=0 speed=0.993x    frame= 1619 fps= 30 q=-0.0 size=   11520kB time=00:00:53.66 bitrate=1758.5kbits/s dup=1332 drop=0 speed=0.994x    frame= 1632 fps= 30 q=-0.0 size=   11776kB time=00:00:54.10 bitrate=1783.2kbits/s dup=1343 drop=0 speed=0.993x    frame= 1648 fps= 30 q=-0.0 size=   11776kB time=00:00:54.63 bitrate=1765.8kbits/s dup=1356 drop=0 speed=0.994x    frame= 1666 fps= 30 q=-0.0 size=   12032kB time=00:00:55.23 bitrate=1784.5kbits/s dup=1371 drop=0 speed=0.995x    frame= 1682 fps= 30 q=-0.0 size=   12032kB time=00:00:55.76 bitrate=1767.5kbits/s dup=1384 drop=0 speed=0.995x    frame= 1693 fps= 30 q=-0.0 size=   12032kB time=00:00:56.13 bitrate=1755.9kbits/s dup=1393 drop=0 speed=0.993x    frame= 1710 fps= 30 q=-0.0 size=   12288kB time=00:00:56.70 bitrate=1775.4kbits/s dup=1407 drop=0 speed=0.994x    frame= 1727 fps= 30 q=-0.0 size=   12288kB time=00:00:57.26 bitrate=1757.8kbits/s dup=1421 drop=0 speed=0.995x    frame= 1739 fps= 30 q=-0.0 size=   12288kB time=00:00:57.66 bitrate=1745.6kbits/s dup=1431 drop=0 speed=0.993x    frame= 1756 fps= 30 q=-0.0 size=   12544kB time=00:00:58.20 bitrate=1765.6kbits/s dup=1445 drop=0 speed=0.993x    frame= 1774 fps= 30 q=-0.0 size=   12544kB time=00:00:58.80 bitrate=1747.6kbits/s dup=1460 drop=0 speed=0.995x    frame= 1789 fps= 30 q=-0.0 size=   12800kB time=00:00:59.30 bitrate=1768.3kbits/s dup=1472 drop=0 speed=0.995x    frame= 1800 fps= 30 q=-0.0 size=   12800kB time=00:00:59.66 bitrate=1757.4kbits/s dup=1481 drop=0 speed=0.992x    frame= 1804 fps= 30 q=-0.0 Lsize=   13088kB time=00:01:00.10 bitrate=1783.9kbits/s dup=1485 drop=0 speed=0.998x    
video:13080kB audio:0kB subtitle:0kB other streams:0kB global headers:0kB muxing overhead: 0.062575%
